<svg width="100" height="100" viewBox="0 0 100 100" fill="none" xmlns="http://www.w3.org/2000/svg">
  <!-- Background Circle (optional) -->
  <rect width="100" height="100" rx="0" fill="white" fill-opacity="0"/>
  
  <!-- Main "eb" logo with 3D effect -->
  <path d="M46 20 L54 20 L54 30 L60 30 L50 12.5 L40 30 L46 30 Z" fill="#3a7d9e"/>
  
  <!-- The "e" part -->
  <path d="M30 60 C20 60 15 50 15 40 C15 30 20 20 35 20 C50 20 47.5 30 47.5 35 L25 35 C25 42.5 30 47.5 37.5 47.5 C45 47.5 47.5 45 47.5 45 L52.5 55 C52.5 55 45 60 30 60 Z" fill="#3a7d9e"/>
  <path d="M25 35 L40 35 C40 30 37.5 27.5 32.5 27.5 C27.5 27.5 25 30 25 35 Z" fill="white"/>
  
  <!-- The "b" part -->
  <path d="M50 60 C40 60 35 55 35 42.5 L35 20 L47.5 20 L47.5 40 C47.5 45 50 47.5 55 47.5 C60 47.5 62.5 42.5 62.5 37.5 C62.5 32.5 60 27.5 55 27.5 L47.5 27.5 L47.5 20 L57.5 20 C72.5 20 75 35 75 40 C75 50 65 60 50 60 Z" fill="#3a7d9e"/>
  
  <!-- Shadow/3D effect -->
  <path d="M31 61.5 C21 61.5 16 51.5 16 41.5 C16 31.5 21 21.5 36 21.5 C51 21.5 48.5 31.5 48.5 36.5 L26 36.5 C26 44 31 49 38.5 49 C46 49 48.5 46.5 48.5 46.5 L53.5 56.5 C53.5 56.5 46 61.5 31 61.5 Z" fill="black" fill-opacity="0.2" transform="translate(1.5, 1.5)"/>
  <path d="M51 61.5 C41 61.5 36 56.5 36 44 L36 21.5 L48.5 21.5 L48.5 41.5 C48.5 46.5 51 49 56 49 C61 49 63.5 44 63.5 39 C63.5 34 61 29 56 29 L48.5 29 L48.5 21.5 L58.5 21.5 C73.5 21.5 76 36.5 76 41.5 C76 51.5 66 61.5 51 61.5 Z" fill="black" fill-opacity="0.2" transform="translate(1.5, 1.5)"/>
  <path d="M47 21.5 L55 21.5 L55 31.5 L61 31.5 L51 14 L41 31.5 L47 31.5 Z" fill="black" fill-opacity="0.2" transform="translate(1.5, 1.5)"/>
</svg> 