<svg width="600" height="400" viewBox="0 0 600 400" fill="none" xmlns="http://www.w3.org/2000/svg">
  <rect width="600" height="400" rx="10" fill="#F7F9FC"/>
  
  <!-- Automation Gear Elements -->
  <circle cx="300" cy="200" r="100" fill="#E0E7FF" stroke="#4338CA" stroke-width="4"/>
  <circle cx="300" cy="200" r="70" fill="#F7F9FC" stroke="#4338CA" stroke-width="3"/>
  
  <!-- Gear Teeth -->
  <rect x="295" y="80" width="10" height="40" rx="2" fill="#4338CA"/>
  <rect x="295" y="280" width="10" height="40" rx="2" fill="#4338CA"/>
  <rect x="180" y="195" width="40" height="10" rx="2" fill="#4338CA"/>
  <rect x="380" y="195" width="40" height="10" rx="2" fill="#4338CA"/>
  
  <!-- Diagonal Gear Teeth -->
  <rect x="220" y="120" width="40" height="10" rx="2" transform="rotate(45 220 120)" fill="#4338CA"/>
  <rect x="365" y="265" width="40" height="10" rx="2" transform="rotate(45 365 265)" fill="#4338CA"/>
  <rect x="220" y="265" width="40" height="10" rx="2" transform="rotate(-45 220 265)" fill="#4338CA"/>
  <rect x="365" y="120" width="40" height="10" rx="2" transform="rotate(-45 365 120)" fill="#4338CA"/>
  
  <!-- Automation Flow Lines -->
  <path d="M420 160 L480 160 L480 120 L520 120" stroke="#10B981" stroke-width="3" stroke-linecap="round"/>
  <path d="M420 240 L480 240 L480 280 L520 280" stroke="#10B981" stroke-width="3" stroke-linecap="round"/>
  <path d="M180 160 L120 160 L120 120 L80 120" stroke="#10B981" stroke-width="3" stroke-linecap="round"/>
  <path d="M180 240 L120 240 L120 280 L80 280" stroke="#10B981" stroke-width="3" stroke-linecap="round"/>
  
  <!-- Data Points & Automation Nodes -->
  <circle cx="520" cy="120" r="8" fill="#10B981"/>
  <circle cx="520" cy="280" r="8" fill="#10B981"/>
  <circle cx="80" cy="120" r="8" fill="#10B981"/>
  <circle cx="80" cy="280" r="8" fill="#10B981"/>
  
  <!-- Central Hub -->
  <circle cx="300" cy="200" r="20" fill="#4338CA"/>
  <circle cx="300" cy="200" r="10" fill="#F7F9FC"/>
</svg> 